<?xml version="1.0" encoding="utf-8"?>
<!-- Generator: Adobe Illustrator 16.0.3, SVG Export Plug-In . SVG Version: 6.00 Build 0)  -->
<!DOCTYPE svg PUBLIC "-//W3C//DTD SVG 1.1//EN" "http://www.w3.org/Graphics/SVG/1.1/DTD/svg11.dtd">
<svg version="1.1" id="Layer_1" xmlns="http://www.w3.org/2000/svg" xmlns:xlink="http://www.w3.org/1999/xlink" x="0px" y="0px"
	 width="163px" height="98px" viewBox="0 0 163 98" enable-background="new 0 0 163 98" xml:space="preserve">
<g>
	<path d="M15.641,80.412l-3.987-0.882c-5.048-1.096-5.872-1.605-5.872-3.638c0-2.399,1.935-3.776,5.308-3.776
		c4.573,0,5.753,1.896,6.118,4.742l0.075,0.583h5.011v-0.668c0-5.823-4.234-9.441-11.051-9.441c-7.845,0-10.629,4.921-10.629,9.135
		c0,4.933,3.304,6.662,8.263,7.74l3.831,0.843c4.694,1.039,5.184,2.012,5.184,3.983c0,2.46-2.342,3.929-6.266,3.929
		c-4.378,0-6.516-1.783-6.727-5.613l-0.035-0.631h-5.094v0.668c0,6.343,4.469,10.284,11.664,10.284c3.722,0,6.654-0.865,8.716-2.572
		c1.954-1.616,2.986-3.912,2.986-6.64C23.137,84.105,20.755,81.549,15.641,80.412z"/>
	<polygon points="43.752,79.285 31.297,79.285 31.297,68.061 25.899,68.061 25.899,96.865 31.297,96.865 31.297,84.107 
		43.752,84.107 43.752,96.865 49.111,96.865 49.111,68.061 43.752,68.061 	"/>
	<path d="M66.219,67.256c-4.001,0-7.44,1.373-9.944,3.973c-2.628,2.729-4.018,6.647-4.018,11.33c0,9.321,5.335,15.111,13.924,15.111
		c8.598,0,14.154-6.143,14.154-15.647c0-4.913-1.38-8.705-4.103-11.271C73.805,68.464,70.343,67.256,66.219,67.256z M66.564,92.771
		c-5.696,0-8.833-3.559-8.833-10.021c0-6.635,3.245-10.595,8.679-10.595c5.18,0,8.526,3.888,8.526,9.905
		C74.937,88.866,71.885,92.771,66.564,92.771z"/>
	<path d="M96.6,68.061H83.596v28.805h5.358V85.487h7.569c5.563,0,9.02-3.368,9.02-8.79C105.543,71.289,102.2,68.061,96.6,68.061z
		 M88.954,72.768h6.458c3.345,0,4.771,1.187,4.771,3.968c0,2.797-1.472,4.044-4.771,4.044h-6.458V72.768z"/>
</g>
<g>
	<path d="M62.046,31.207c3.541,0,6.113-0.657,8.343-2.13c2.476-1.694,3.679-4.021,3.679-7.114c0-4.44-2.376-6.935-7.702-8.09
		l-4.085-0.913c-5.412-1.272-6.189-1.599-6.189-3.775c0-2.545,1.936-3.89,5.597-3.89c4.25,0,5.994,1.318,6.432,4.862l0.017,0.138
		h5.058v-0.157c0-1.611-0.368-4.641-2.829-6.823c-1.999-1.791-4.865-2.699-8.518-2.699c-3.259,0-5.686,0.717-7.636,2.254
		c-1.494,1.145-3.275,3.272-3.275,6.91c0,4.332,2.223,6.366,8.497,7.773l3.968,0.873c4.209,0.935,5.433,1.591,5.433,4.132
		c0,2.498-2.525,4.049-6.589,4.049c-4.642,0-6.821-1.778-7.066-5.766l-0.009-0.147h-5.107v0.157c0,3.042,0.885,5.389,2.706,7.176
		C54.859,30.078,58.154,31.207,62.046,31.207z"/>
	<rect x="77.314" y="1.441" width="5.4" height="28.767"/>
	<polygon points="14.505,47.65 6.815,34.835 0.577,34.835 0.577,63.602 5.772,63.602 5.772,42.659 12.312,53.695 16.419,53.695 
		23.038,42.691 23.038,63.602 28.193,63.602 28.193,34.835 22.273,34.835 	"/>
	<path d="M48.96,52.571c0,4.934-1.805,6.945-6.231,6.945c-3.846,0-5.636-2.207-5.636-6.945V34.835h-5.474v16.981
		c0,4.277,1.008,7.499,2.995,9.573c1.885,1.968,4.708,2.965,8.392,2.965c7.689,0,11.427-4.102,11.427-12.538V34.835H48.96V52.571z"
		/>
	<path d="M73.041,47.101l-4.085-0.912c-5.411-1.273-6.188-1.6-6.188-3.775c0-2.545,1.936-3.891,5.597-3.891
		c4.25,0,5.993,1.318,6.432,4.862l0.017,0.138h5.058v-0.157c0-1.611-0.368-4.64-2.83-6.824c-2-1.791-4.865-2.699-8.518-2.699
		c-3.258,0-5.685,0.717-7.635,2.254c-1.495,1.145-3.276,3.273-3.276,6.911c0,4.331,2.224,6.365,8.497,7.772l3.967,0.872
		c4.209,0.936,5.433,1.592,5.433,4.133c0,2.497-2.524,4.049-6.589,4.049c-4.642,0-6.82-1.777-7.065-5.765l-0.009-0.147h-5.106v0.157
		c0,3.042,0.885,5.39,2.706,7.176c2.089,2.05,5.384,3.18,9.277,3.18c3.54,0,6.112-0.657,8.342-2.131
		c2.476-1.694,3.679-4.021,3.679-7.114C80.743,50.751,78.367,48.256,73.041,47.101z"/>
	<polygon points="48.434,25.535 32.282,25.535 32.282,17.833 46.807,17.833 46.807,13.115 32.282,13.115 32.282,6.524 48.076,6.524 
		48.076,1.606 26.968,1.606 26.968,30.374 48.434,30.374 	"/>
	<polygon points="156.852,34.835 149.084,47.65 141.439,34.912 141.394,34.835 135.156,34.835 135.156,63.602 140.352,63.602 
		140.352,42.659 146.89,53.695 150.997,53.695 157.616,42.691 157.616,63.602 162.771,63.602 162.771,34.835 	"/>
	<path d="M24.741,15.494c0-4.328-1.174-7.896-3.395-10.319c-2.139-2.334-5.191-3.568-8.826-3.568H0.815v28.767H12.56
		C20.074,30.374,24.741,24.672,24.741,15.494z M11.766,6.326c5.118,0,7.502,3.115,7.502,9.803c0,6.117-2.65,9.486-7.462,9.486H6.169
		V6.326H11.766z"/>
	<path d="M112.309,14.821H99.573v4.64h7.601c-0.526,4.456-3.221,6.908-7.603,6.908c-5.426,0-8.177-3.418-8.177-10.161
		c0-6.585,3.013-10.517,8.058-10.517c4.021,0,6.347,1.557,7.109,4.76l0.028,0.121h5.308l-0.028-0.181
		c-0.949-6.151-5.316-9.539-12.298-9.539c-8.188,0-13.689,6.235-13.689,15.515c0,9.242,4.97,14.76,13.293,14.76
		c3.997,0,7.119-1.139,9.28-3.387c2.557-2.659,3.854-6.953,3.854-12.763V14.821z"/>
	<polygon points="89.649,51.062 104.174,51.062 104.174,46.343 89.649,46.343 89.649,39.753 105.444,39.753 105.444,34.835 
		84.335,34.835 84.335,63.602 105.802,63.602 105.802,58.763 89.649,58.763 	"/>
	<path d="M125.866,52.571c0,4.934-1.806,6.945-6.232,6.945c-3.845,0-5.636-2.207-5.636-6.945V34.835h-5.474v16.981
		c0,4.277,1.008,7.499,2.995,9.573c1.885,1.968,4.708,2.965,8.392,2.965c7.69,0,11.429-4.101,11.429-12.538V34.835h-5.474V52.571z"
		/>
	<polygon points="138.593,1.606 133.397,1.606 133.389,21.938 121.746,1.685 121.7,1.606 115.579,1.606 115.579,30.374 
		120.735,30.374 120.718,10.069 132.79,30.374 138.593,30.374 	"/>
</g>
</svg>
